<svg id="Layer_1" data-name="Layer 1" xmlns="http://www.w3.org/2000/svg" viewBox="0 0 1780.98 910.56"><defs><style>.cls-1,.cls-2{fill:#fff;}.cls-2{font-size:131.77px;font-family:Candara;letter-spacing:0.08em;}</style></defs><path class="cls-1" d="M449.52,703.46c3.9,2.77,9.13,3.09,19.42,3.6,37.13,1.86,38.94,1.46,43.88,2.87,19.53,5.56,30.26,22.87,31.65,25.19,11.41,19,10.92,44.41-1.44,63.3-11.85,18.15-30.27,23.59-36,25.18-29.82,8.32-54.59-7.62-58.26-10.07-27.35-18.23-32.6-50.07-36-70.5-7.6-46,9.41-82.14,13.66-90.64,21.07-42.13,56.21-61.46,72.66-70.51,29.14-16,57.72-21.61,90.64-28,17.85-3.49,33-5.38,43.88-6.48l494.95-2.15c-8.39,36.08-14.27,67.16-18.39,91.39-10.41,61.22-17.9,127.6-25.49,195.64-3.61,32.31-6.11,56.56-14.4,90.64-7,28.63-12.87,52.29-27.33,79.13-10.07,18.69-29.22,48.13-64.74,76.26,6.63-1.74,16.43-4.53,28.06-8.63,33.68-11.87,47.9-22.49,70.49-33.09,36.17-17,67.58-21.6,87-24.46,32.09-4.73,53.61-7.9,79.85.72,12.56,4.12,39.82,13.07,54.67,38.85,21.47,37.26,7,92.29-12.22,97.11-3.31.84-8.73-.3-13-2.87-6.61-4-8.66-10.89-10.8-15.83-4.52-10.47-11.23-16.35-23.73-27.34-14.67-12.88-31-16.67-46.77-20.14-13.23-2.91-32.92-5.72-72.65-2.16-18.46,1.66-54.83,5.9-105.75,20.15-34.25,9.58-30.88,11.33-64.75,20.85a719.55,719.55,0,0,1-102.87,20.87c-48.34,6.23-72.52,9.34-102.88,2.88-12.95-2.76-39.88-8.78-68.34-28.78-39.14-27.5-55.29-63.27-59-71.94-6.34-14.85-20.4-49.09-10.78-89.92,3.62-15.37,9.75-41.37,33.8-56.83,21.54-13.84,44.42-10.88,49.64-10.08,6,.93,29.71,5,45.32,25.9,16.64,22.31,19.06,57.09,2.16,77-11.6,13.66-33.71,21.94-52.51,20.14-11.41-1.1-23-6-36.69,0-2.74,1.21-7.33,3.3-10.8,7.92-7.65,10.18-3.83,24.53-1.44,33.09,7,25.06,24.35,40.55,33.1,48.2,7.48,6.52,21,18,42.44,24.45,7.1,2.13,25.69,7.45,48.2,2.88,23.28-4.71,37.57-17.34,55.4-33.09A217.57,217.57,0,0,0,861,1032.94c3.71-7,10.59-21,18-45.32,11.87-39.06,13.49-66.75,18.7-125.17,4.87-54.65,7.31-82,9.35-93.52,7-39.59,13.79-77.85,36-115.82,12-20.6,41.59-63.36,105.76-95l-425.16,1.44A267.2,267.2,0,0,0,592,562.46a228.24,228.24,0,0,0-33.09,7.19c-21,6.38-35.72,14.85-46,20.87-15.3,8.93-33.42,19.69-51.08,39.56-11.19,12.6-20.42,23.27-22.3,39.57C439.12,672.47,436.86,694.49,449.52,703.46Z" transform="translate(-410.9 -406.6)"/><path class="cls-1" d="M1155.72,633.2l172.65-1.44a285.17,285.17,0,0,1,1,35.49c-.7,19.82-3.3,34.81-6.72,53.24-5.63,30.34-8.44,45.5-12.94,65.7-6.08,27.24-12.11,68.43-10.6,127.36a7.54,7.54,0,0,0,2.92,5c2.85,1.94,7.36,1.32,10.56-1.92a47.8,47.8,0,0,1-4.81,12.47c-9.59,17.13-27.5,23.4-48,30.22-12.94,4.31-30.14,9.88-53.72,9.59-11.32-.15-34.55-.7-59.47-13.91a117.36,117.36,0,0,1-18.22-12c-.56-8.67-1.1-20.88-1-35.5.29-28.73,3.11-51.82,7.2-79.13,6.9-46.15,10.42-57.7,14.38-83.45A616.48,616.48,0,0,0,1155.72,633.2Z" transform="translate(-410.9 -406.6)"/><path class="cls-1" d="M1187.85,526.25c7.82,16.86,21.76,27.69,26.85,31.65,6.48,5,18.28,14,36,17.75,33.8,7.16,60.43-10.79,62.83-12.47,18.88-13.17,26.31-30.85,28.78-36.93,16-39.39-3.94-75.24-4.8-76.74-2.46-4.26-23.58-39.45-65.22-42.68-34.48-2.67-58,18.48-63.31,23.5C1182.63,455.43,1174.09,496.58,1187.85,526.25Z" transform="translate(-410.9 -406.6)"/><path class="cls-1" d="M1601.21,482.6c.16,3.21.32,6.4.48,9.6a19.22,19.22,0,0,1,11,4.8c5.37,5.09,5.69,12.6,5.76,18.22.23,19-2.11,38-3.8,49.39-2.85,18-7.42,46.15-13.42,80.58-9.27,53.14-21.13,116.34-30.21,192.79-9.17,77.17-6.54,92.25,4.26,104.56,27.53,31.38,87.8,21.63,108.87,18.23,33.14-5.37,49.17-18.2,55.16-23.51a89.31,89.31,0,0,0,16.78-20.14c-.92.55-7.23,4.12-13.86,1.44a14.3,14.3,0,0,1-5.33-3.84c-.4-5.63-1.08-16.13-1.39-29.26-2.88-122.75,33.09-185.17,50.37-324.68,2-16.21,4.94-43,6.66-76.74Z" transform="translate(-410.9 -406.6)"/><path class="cls-1" d="M1801.25,627.21h185.6a421.49,421.49,0,0,1-2.16,48.91c-2.68,26.28-5.88,33-13.66,74.82-7.06,37.91-10.83,58.62-11.51,86.32a353.66,353.66,0,0,0,2.16,48.92,90.32,90.32,0,0,0,14.38-16.54,94.37,94.37,0,0,0,13.67-32.38C2007.5,762.18,2011.31,715,2011.31,715c1.59-19.78,3.25-46.78,3.6-79.13l177-4.32c-1.25,23.79-3.38,57.48-7.2,97.84-4.56,48.3-8.61,90-18.7,143.16-9.46,49.8-15.46,81.38-32.37,123-13.77,33.9-27.5,66.78-59,99.28-25.26,26.06-50.49,40.06-69.06,50.36a321.41,321.41,0,0,1-89.2,33.09h0c-31.08,6.21-70.88,1.41-74.78-13.2-1.57-5.84,3.09-11.41,3.59-12,7.38-8.59,21.34-4.15,33.1-5,28.67-2.16,48.51-36.25,62.58-60.42,12.78-22,19.41-41.47,24.46-64a1239.38,1239.38,0,0,0,22.3-136.69c-3.15,4.13-8,10.25-14.39,17.27-20.56,22.68-43.16,47.61-76.25,56.11-8.39,2.16-39.88,10.26-66.91-6.71-25-15.68-31.68-43.69-36.68-64.51-7.1-29.52-2.58-59,6.47-118,5-32.44,12.29-58,14.34-66.72a1.68,1.68,0,0,0,0-.19c4.6-17.52,8.93-31.38,4.31-48.2C1814.84,642.62,1807.09,633.08,1801.25,627.21Z" transform="translate(-410.9 -406.6)"/><text class="cls-2" transform="translate(966.58 730.98)">BISTRO <tspan x="0" y="112.94">&amp; BAR</tspan></text><path class="cls-1" d="M1370.93,482c.17,3.2.32,6.39.48,9.59a19.26,19.26,0,0,1,11,4.8c5.37,5.09,5.69,12.6,5.76,18.22.24,19-2.11,38-3.79,49.4-2.86,18-7.42,46.14-13.43,80.58-9.27,53.13-21.12,116.34-30.21,192.79-9.17,77.17-6.53,92.24,4.27,104.55,27.53,31.38,87.79,21.64,108.86,18.23,33.15-5.36,49.17-18.19,55.16-23.51a88.56,88.56,0,0,0,16.78-20.14c-.92.55-7.23,4.13-13.86,1.44a14.29,14.29,0,0,1-5.33-3.83c-.4-5.63-1.08-16.13-1.38-29.26-2.88-122.75,33.08-185.18,50.36-324.69,2-16.21,4.94-43,6.66-76.73Z" transform="translate(-410.9 -406.6)"/></svg>