<svg id="Layer_1" data-name="Layer 1" xmlns="http://www.w3.org/2000/svg" viewBox="0 0 47.37 64.01"><defs><style>.cls-1{fill:#878787;}</style></defs><path class="cls-1" d="M672.5,313.73A24.21,24.21,0,0,0,652.05,301c-10-.19-16.38,6.29-17.42,7.37a25.17,25.17,0,0,0-5.36,25.14c.66,1.83,2.67,4.79,6.7,10.72,2.24,3.31,4.2,5.94,8,11.06,3,4,5.51,7.3,7.37,9.72h1c2.2-3.19,5.66-8.12,10.05-14.08,8.45-11.45,10.79-13.73,12.07-19.1C675,329.64,676.8,321.69,672.5,313.73Zm-20.88,21.78A10.56,10.56,0,1,1,662.18,325,10.56,10.56,0,0,1,651.62,335.51Z" transform="translate(-627.94 -300.99)"/></svg>